# xmcd
#
# Track frame offsets:
#	150
#	33100
#	70632
#
# Disc length: 1421 seconds
#
# Revision: 1
# Processed by: cddbd v1.5.1PL0 Copyright (c) Steve Scherf et al.
# Submitted via: EasyCDDAExtractor 6.5.0.1
#
DISCID=19058b03
DTITLE=Abbacadabra - S.O.S., Eagle, Higher And Higher
DYEAR=1900
DGENRE=
TTITLE0=S.O.S.(12 Inch)
TTITLE1=Eagle(12 Inch)
TTITLE2=Higher And Higher(12 Inch)
EXTD=
EXTT0=
EXTT1=
EXTT2=
PLAYORDER=
